0
SECTION
2
HEADER
9
$INSUNITS
70
4
9
$ACADVER
1
AC1014
9
$HANDSEED
5
FFFF
0
ENDSEC
0
SECTION
2
TABLES
0
TABLE
2
VPORT
5
8
100
AcDbSymbolTable
0
ENDTAB
0
TABLE
2
LTYPE
5
5
100
AcDbSymbolTable
0
LTYPE
5
14
100
AcDbSymbolTableRecord
100
AcDbLinetypeTableRecord
2
BYBLOCK
70
0
0
LTYPE
5
15
100
AcDbSymbolTableRecord
100
AcDbLinetypeTableRecord
2
BYLAYER
70
0
0
ENDTAB
0
TABLE
2
LAYER
5
2
100
AcDbSymbolTable
70
2
0
LAYER
5
50
100
AcDbSymbolTableRecord
100
AcDbLayerTableRecord
2
0
70
0
6
CONTINUOUS
0
ENDTAB
0
TABLE
2
STYLE
5
3
100
AcDbSymbolTable
70
1
0
STYLE
5
11
100
AcDbSymbolTableRecord
100
AcDbTextStyleTableRecord
2
STANDARD
70
0
0
ENDTAB
0
TABLE
2
VIEW
5
6
100
AcDbSymbolTable
70
0
0
ENDTAB
0
TABLE
2
UCS
5
7
100
AcDbSymbolTable
70
0
0
ENDTAB
0
TABLE
2
APPID
5
9
100
AcDbSymbolTable
70
2
0
APPID
5
12
100
AcDbSymbolTableRecord
100
AcDbRegAppTableRecord
2
ACAD
70
0
0
ENDTAB
0
TABLE
2
DIMSTYLE
5
A
100
AcDbSymbolTable
70
1
0
ENDTAB
0
TABLE
2
BLOCK_RECORD
5
1
100
AcDbSymbolTable
70
1
0
BLOCK_RECORD
5
1F
100
AcDbSymbolTableRecord
100
AcDbBlockTableRecord
2
*MODEL_SPACE
0
BLOCK_RECORD
5
1B
100
AcDbSymbolTableRecord
100
AcDbBlockTableRecord
2
*PAPER_SPACE
0
ENDTAB
0
ENDSEC
0
SECTION
2
BLOCKS
0
BLOCK
5
20
100
AcDbEntity
100
AcDbBlockBegin
2
*MODEL_SPACE
0
ENDBLK
5
21
100
AcDbEntity
100
AcDbBlockEnd
0
BLOCK
5
1C
100
AcDbEntity
100
AcDbBlockBegin
2
*PAPER_SPACE
0
ENDBLK
5
1D
100
AcDbEntity
100
AcDbBlockEnd
0
ENDSEC
0
SECTION
2
ENTITIES
0
CIRCLE
5
100
100
AcDbEntity
8
0
100
AcDbCircle
10
15.587719110199147
20
-101.00882521397024
30
-8.8817841970012523e-15
40
0.99999999999999645
210
7.8513425090423371e-50
220
2.4345646468427575e-82
230
1
0
CIRCLE
5
101
100
AcDbEntity
8
0
100
AcDbCircle
10
51.147719110199148
20
-101.00882521397024
30
0
40
0.99999999999999645
210
7.8513425090423371e-50
220
2.4345646468427575e-82
230
1
0
LWPOLYLINE
5
102
100
AcDbEntity
8
0
100
AcDbPolyline
90
12
70
1
43
0.0
10
5.5677191102000663
20
-110.28742521397005
10
61.167719110200061
20
-110.28742521397007
42
0.41421356237309503
10
64.367719110200056
20
-107.08742521397006
10
64.367719110200056
20
-23.48742521397007
42
0.67703296142689995
10
58.850477730889722
20
-21.28052866224591
10
52.436008108557822
20
-28.015721765694373
42
-0.20525770195463583
10
50.118766729247483
20
-29.008825213970233
10
16.616671491150814
20
-29.008825213970233
42
-0.20525770195466836
10
14.299430111840197
20
-28.015721765694082
10
7.8849604895090373
20
-21.280528662244677
42
0.67703296142668989
10
2.3677191102000639
20
-23.487425213970063
10
2.3677191102000803
20
-107.08742521397006
42
0.41421356237309503
0
CIRCLE
5
103
100
AcDbEntity
8
0
100
AcDbCircle
10
61.167719110200061
20
-107.08742521397006
30
0
40
1.6500000000000004
210
7.851342509042339e-50
220
2.434564646842758e-82
230
1
0
CIRCLE
5
104
100
AcDbEntity
8
0
100
AcDbCircle
10
5.5677191102000663
20
-107.08742521397006
30
0
40
1.6500000000000004
210
7.851342509042339e-50
220
2.434564646842758e-82
230
1
0
CIRCLE
5
105
100
AcDbEntity
8
0
100
AcDbCircle
10
49.25271911020004
20
-36.787425213970025
30
0
40
0.49999999999999822
210
-3.6863375221055713e-66
220
-0
230
1
0
CIRCLE
5
106
100
AcDbEntity
8
0
100
AcDbCircle
10
55.907719110200034
20
-46.377425213970021
30
0
40
0.49999999999999822
210
-3.6863375221055713e-66
220
-0
230
1
0
CIRCLE
5
107
100
AcDbEntity
8
0
100
AcDbCircle
10
53.367719110200042
20
-48.917425213970027
30
0
40
0.49999999999999822
210
-3.6863375221055713e-66
220
-0
230
1
0
CIRCLE
5
108
100
AcDbEntity
8
0
100
AcDbCircle
10
55.907719110200034
20
-48.917425213970027
30
0
40
0.49999999999999822
210
-3.6863375221055713e-66
220
-0
230
1
0
CIRCLE
5
109
100
AcDbEntity
8
0
100
AcDbCircle
10
43.521519110200046
20
-33.048825213970019
30
0
40
0.49999999999999822
210
-3.6863375221055713e-66
220
-0
230
1
0
CIRCLE
5
110
100
AcDbEntity
8
0
100
AcDbCircle
10
40.981519110200033
20
-33.048825213970019
30
0
40
0.49999999999999822
210
-3.6863375221055713e-66
220
-0
230
1
0
CIRCLE
5
111
100
AcDbEntity
8
0
100
AcDbCircle
10
43.521519110200046
20
-30.508825213970027
30
0
40
0.49999999999999822
210
-3.6863375221055713e-66
220
-0
230
1
0
CIRCLE
5
112
100
AcDbEntity
8
0
100
AcDbCircle
10
51.792719110200032
20
-36.787425213970025
30
0
40
0.49999999999999822
210
-3.6863375221055713e-66
220
-0
230
1
0
CIRCLE
5
113
100
AcDbEntity
8
0
100
AcDbCircle
10
55.367719110200035
20
-33.287425213970025
30
0
40
0.99999999999999645
210
-3.6863375221055713e-66
220
-0
230
1
0
CIRCLE
5
114
100
AcDbEntity
8
0
100
AcDbCircle
10
39.092719110200029
20
-36.787425213970025
30
0
40
0.49999999999999822
210
-3.6863375221055713e-66
220
-0
230
1
0
CIRCLE
5
115
100
AcDbEntity
8
0
100
AcDbCircle
10
55.907719110200034
20
-51.457425213970026
30
0
40
0.49999999999999822
210
-3.6863375221055713e-66
220
-0
230
1
0
CIRCLE
5
116
100
AcDbEntity
8
0
100
AcDbCircle
10
55.907719110200034
20
-53.997425213970018
30
0
40
0.49999999999999822
210
-3.6863375221055713e-66
220
-0
230
1
0
CIRCLE
5
117
100
AcDbEntity
8
0
100
AcDbCircle
10
55.907719110200034
20
-56.537425213970025
30
0
40
0.49999999999999822
210
-3.6863375221055713e-66
220
-0
230
1
0
CIRCLE
5
118
100
AcDbEntity
8
0
100
AcDbCircle
10
53.367719110200042
20
-51.457425213970026
30
0
40
0.49999999999999822
210
-3.6863375221055713e-66
220
-0
230
1
0
CIRCLE
5
119
100
AcDbEntity
8
0
100
AcDbCircle
10
53.367719110200042
20
-53.997425213970018
30
0
40
0.49999999999999822
210
-3.6863375221055713e-66
220
-0
230
1
0
CIRCLE
5
120
100
AcDbEntity
8
0
100
AcDbCircle
10
53.367719110200042
20
-56.537425213970025
30
0
40
0.49999999999999822
210
-3.6863375221055713e-66
220
-0
230
1
0
CIRCLE
5
121
100
AcDbEntity
8
0
100
AcDbCircle
10
55.367719110200035
20
-69.287425213970025
30
0
40
0.99999999999999645
210
-3.6863375221055713e-66
220
-0
230
1
0
CIRCLE
5
122
100
AcDbEntity
8
0
100
AcDbCircle
10
55.367719110200035
20
-73.287425213970025
30
0
40
1.5000000000000036
210
2.6481264522966337e-67
220
-3.0814879110195774e-33
230
1
0
CIRCLE
5
123
100
AcDbEntity
8
0
100
AcDbCircle
10
48.017319110200035
20
-70.463025213970013
30
0
40
0.49999999999999822
210
-3.6863375221055713e-66
220
-0
230
1
0
CIRCLE
5
124
100
AcDbEntity
8
0
100
AcDbCircle
10
45.477319110200042
20
-70.463025213970013
30
0
40
0.49999999999999822
210
-3.6863375221055713e-66
220
-0
230
1
0
CIRCLE
5
125
100
AcDbEntity
8
0
100
AcDbCircle
10
48.017319110200035
20
-73.00302521397002
30
0
40
0.49999999999999822
210
-3.6863375221055713e-66
220
-0
230
1
0
CIRCLE
5
126
100
AcDbEntity
8
0
100
AcDbCircle
10
45.477319110200042
20
-73.00302521397002
30
0
40
0.49999999999999822
210
-3.6863375221055713e-66
220
-0
230
1
0
CIRCLE
5
127
100
AcDbEntity
8
0
100
AcDbCircle
10
42.937319110200029
20
-70.463025213970013
30
0
40
0.49999999999999822
210
-3.6863375221055713e-66
220
-0
230
1
0
CIRCLE
5
128
100
AcDbEntity
8
0
100
AcDbCircle
10
42.937319110200029
20
-73.00302521397002
30
0
40
0.49999999999999822
210
-3.6863375221055713e-66
220
-0
230
1
0
CIRCLE
5
129
100
AcDbEntity
8
0
100
AcDbCircle
10
29.526119110200035
20
-70.564625213970004
30
-8.8817841970012523e-15
40
0.49999999999999822
210
0
220
0
230
1
0
CIRCLE
5
130
100
AcDbEntity
8
0
100
AcDbCircle
10
11.085719110200031
20
-50.29542521397002
30
0
40
0.50000000000000044
210
-3.686337522105555e-66
220
-0
230
1
0
CIRCLE
5
131
100
AcDbEntity
8
0
100
AcDbCircle
10
11.085719110200031
20
-47.755425213970028
30
0
40
0.50000000000000044
210
-3.686337522105555e-66
220
-0
230
1
0
CIRCLE
5
132
100
AcDbEntity
8
0
100
AcDbCircle
10
13.625719110200027
20
-50.29542521397002
30
0
40
0.50000000000000044
210
-3.686337522105555e-66
220
-0
230
1
0
CIRCLE
5
133
100
AcDbEntity
8
0
100
AcDbCircle
10
13.625719110200027
20
-47.755425213970028
30
0
40
0.50000000000000044
210
-3.686337522105555e-66
220
-0
230
1
0
CIRCLE
5
134
100
AcDbEntity
8
0
100
AcDbCircle
10
11.367719110200031
20
-33.287425213970025
30
0
40
1.0000000000000009
210
-3.686337522105555e-66
220
-0
230
1
0
CIRCLE
5
135
100
AcDbEntity
8
0
100
AcDbCircle
10
11.367719110200031
20
-29.287425213970018
30
0
40
1.5000000000000013
210
2.648126452296637e-67
220
3.0814879110195774e-33
230
1
0
CIRCLE
5
136
100
AcDbEntity
8
0
100
AcDbCircle
10
15.581519110200041
20
-33.048825213970019
30
0
40
0.50000000000000044
210
-3.686337522105555e-66
220
-0
230
1
0
CIRCLE
5
137
100
AcDbEntity
8
0
100
AcDbCircle
10
15.581519110200041
20
-30.508825213970027
30
0
40
0.50000000000000044
210
-3.686337522105555e-66
220
-0
230
1
0
CIRCLE
5
138
100
AcDbEntity
8
0
100
AcDbCircle
10
18.121519110200037
20
-33.048825213970019
30
0
40
0.50000000000000044
210
-3.686337522105555e-66
220
-0
230
1
0
CIRCLE
5
139
100
AcDbEntity
8
0
100
AcDbCircle
10
29.526119110200035
20
-73.104625213970024
30
-8.8817841970012523e-15
40
0.49999999999999822
210
0
220
0
230
1
0
CIRCLE
5
140
100
AcDbEntity
8
0
100
AcDbCircle
10
40.397319110200044
20
-73.00302521397002
30
0
40
0.49999999999999822
210
-3.6863375221055713e-66
220
-0
230
1
0
CIRCLE
5
141
100
AcDbEntity
8
0
100
AcDbCircle
10
40.397319110200044
20
-70.463025213970013
30
0
40
0.49999999999999822
210
-3.6863375221055713e-66
220
-0
230
1
0
CIRCLE
5
142
100
AcDbEntity
8
0
100
AcDbCircle
10
37.857319110200038
20
-70.463025213970013
30
0
40
0.49999999999999822
210
-3.6863375221055713e-66
220
-0
230
1
0
CIRCLE
5
143
100
AcDbEntity
8
0
100
AcDbCircle
10
37.857319110200038
20
-73.00302521397002
30
0
40
0.49999999999999822
210
-3.6863375221055713e-66
220
-0
230
1
0
CIRCLE
5
144
100
AcDbEntity
8
0
100
AcDbCircle
10
33.361519110200028
20
-30.508825213970027
30
-8.8817841970012523e-15
40
0.49999999999999822
210
0
220
0
230
1
0
CIRCLE
5
145
100
AcDbEntity
8
0
100
AcDbCircle
10
30.82151911020004
20
-30.508825213970027
30
-8.8817841970012523e-15
40
0.49999999999999822
210
0
220
0
230
1
0
CIRCLE
5
146
100
AcDbEntity
8
0
100
AcDbCircle
10
33.361519110200028
20
-33.048825213970019
30
-8.8817841970012523e-15
40
0.49999999999999822
210
0
220
0
230
1
0
CIRCLE
5
147
100
AcDbEntity
8
0
100
AcDbCircle
10
30.82151911020004
20
-33.048825213970019
30
-8.8817841970012523e-15
40
0.49999999999999822
210
0
220
0
230
1
0
CIRCLE
5
148
100
AcDbEntity
8
0
100
AcDbCircle
10
28.281519110200037
20
-30.508825213970027
30
0
40
0.49999999999999822
210
-3.6863375221055713e-66
220
-0
230
1
0
CIRCLE
5
149
100
AcDbEntity
8
0
100
AcDbCircle
10
28.281519110200037
20
-33.048825213970019
30
0
40
0.49999999999999822
210
-3.6863375221055713e-66
220
-0
230
1
0
CIRCLE
5
150
100
AcDbEntity
8
0
100
AcDbCircle
10
25.741519110200038
20
-30.508825213970027
30
0
40
0.49999999999999822
210
-3.6863375221055713e-66
220
-0
230
1
0
CIRCLE
5
151
100
AcDbEntity
8
0
100
AcDbCircle
10
25.741519110200038
20
-33.048825213970019
30
0
40
0.49999999999999822
210
-3.6863375221055713e-66
220
-0
230
1
0
CIRCLE
5
152
100
AcDbEntity
8
0
100
AcDbCircle
10
23.201519110200024
20
-30.508825213970027
30
0
40
0.49999999999999822
210
-3.6863375221055713e-66
220
-0
230
1
0
CIRCLE
5
153
100
AcDbEntity
8
0
100
AcDbCircle
10
23.201519110200024
20
-33.048825213970019
30
0
40
0.49999999999999822
210
-3.6863375221055713e-66
220
-0
230
1
0
CIRCLE
5
154
100
AcDbEntity
8
0
100
AcDbCircle
10
26.986119110200029
20
-70.564625213970004
30
-8.8817841970012523e-15
40
0.49999999999999822
210
0
220
0
230
1
0
CIRCLE
5
155
100
AcDbEntity
8
0
100
AcDbCircle
10
26.986119110200029
20
-73.104625213970024
30
-8.8817841970012523e-15
40
0.49999999999999822
210
0
220
0
230
1
0
CIRCLE
5
156
100
AcDbEntity
8
0
100
AcDbCircle
10
24.446119110200037
20
-70.564625213970004
30
-8.8817841970012523e-15
40
0.49999999999999822
210
0
220
0
230
1
0
CIRCLE
5
157
100
AcDbEntity
8
0
100
AcDbCircle
10
21.906119110200038
20
-70.564625213970004
30
-8.8817841970012523e-15
40
0.49999999999999822
210
0
220
0
230
1
0
CIRCLE
5
158
100
AcDbEntity
8
0
100
AcDbCircle
10
24.446119110200037
20
-73.104625213970024
30
-8.8817841970012523e-15
40
0.49999999999999822
210
0
220
0
230
1
0
CIRCLE
5
159
100
AcDbEntity
8
0
100
AcDbCircle
10
21.906119110200038
20
-73.104625213970024
30
-8.8817841970012523e-15
40
0.49999999999999822
210
0
220
0
230
1
0
CIRCLE
5
160
100
AcDbEntity
8
0
100
AcDbCircle
10
13.625719110200027
20
-52.835425213970026
30
0
40
0.50000000000000044
210
-3.686337522105555e-66
220
-0
230
1
0
CIRCLE
5
161
100
AcDbEntity
8
0
100
AcDbCircle
10
13.625719110200027
20
-55.375425213970011
30
0
40
0.50000000000000044
210
-3.686337522105555e-66
220
-0
230
1
0
CIRCLE
5
162
100
AcDbEntity
8
0
100
AcDbCircle
10
11.085719110200031
20
-52.835425213970026
30
0
40
0.50000000000000044
210
-3.686337522105555e-66
220
-0
230
1
0
CIRCLE
5
163
100
AcDbEntity
8
0
100
AcDbCircle
10
11.085719110200031
20
-55.375425213970011
30
0
40
0.50000000000000044
210
-3.686337522105555e-66
220
-0
230
1
0
CIRCLE
5
164
100
AcDbEntity
8
0
100
AcDbCircle
10
12.355719110200038
20
-60.221425213970015
30
0
40
0.92500000000000016
210
2.648126452296639e-67
220
-3.081487911019578e-33
230
1
0
CIRCLE
5
165
100
AcDbEntity
8
0
100
AcDbCircle
10
11.367719110200031
20
-69.287425213970025
30
0
40
1.0000000000000009
210
-3.686337522105555e-66
220
-0
230
1
0
CIRCLE
5
166
100
AcDbEntity
8
0
100
AcDbCircle
10
12.355719110200038
20
-64.602925213970025
30
0
40
0.92500000000000016
210
2.648126452296639e-67
220
-3.081487911019578e-33
230
1
0
CIRCLE
5
167
100
AcDbEntity
8
0
100
AcDbCircle
10
19.366119110200046
20
-73.104625213970024
30
0
40
0.50000000000000044
210
-3.686337522105555e-66
220
-0
230
1
0
CIRCLE
5
168
100
AcDbEntity
8
0
100
AcDbCircle
10
19.366119110200046
20
-70.564625213970004
30
0
40
0.50000000000000044
210
-3.686337522105555e-66
220
-0
230
1
0
CIRCLE
5
169
100
AcDbEntity
8
0
100
AcDbCircle
10
11.367719110200031
20
-73.287425213970025
30
0
40
1.5000000000000013
210
2.648126452296637e-67
220
3.0814879110195774e-33
230
1
0
CIRCLE
5
170
100
AcDbEntity
8
0
100
AcDbCircle
10
20.661519110200047
20
-30.508825213970027
30
0
40
0.49999999999999822
210
-3.6863375221055713e-66
220
-0
230
1
0
CIRCLE
5
171
100
AcDbEntity
8
0
100
AcDbCircle
10
18.121519110200037
20
-30.508825213970027
30
0
40
0.50000000000000044
210
-3.686337522105555e-66
220
-0
230
1
0
CIRCLE
5
172
100
AcDbEntity
8
0
100
AcDbCircle
10
20.661519110200047
20
-33.048825213970019
30
0
40
0.49999999999999822
210
-3.6863375221055713e-66
220
-0
230
1
0
CIRCLE
5
173
100
AcDbEntity
8
0
100
AcDbCircle
10
35.901519110200041
20
-30.508825213970027
30
-8.8817841970012523e-15
40
0.49999999999999822
210
0
220
0
230
1
0
CIRCLE
5
174
100
AcDbEntity
8
0
100
AcDbCircle
10
38.441519110200048
20
-33.048825213970019
30
0
40
0.49999999999999822
210
-3.6863375221055713e-66
220
-0
230
1
0
CIRCLE
5
175
100
AcDbEntity
8
0
100
AcDbCircle
10
38.441519110200048
20
-30.508825213970027
30
0
40
0.49999999999999822
210
-3.6863375221055713e-66
220
-0
230
1
0
CIRCLE
5
176
100
AcDbEntity
8
0
100
AcDbCircle
10
41.632719110200036
20
-36.787425213970025
30
0
40
0.49999999999999822
210
-3.6863375221055713e-66
220
-0
230
1
0
CIRCLE
5
177
100
AcDbEntity
8
0
100
AcDbCircle
10
55.367719110200035
20
-29.287425213970018
30
0
40
1.5000000000000036
210
2.6481264522966337e-67
220
-3.0814879110195774e-33
230
1
0
CIRCLE
5
178
100
AcDbEntity
8
0
100
AcDbCircle
10
51.141519110200036
20
-30.508825213970027
30
0
40
0.49999999999999822
210
-3.6863375221055713e-66
220
-0
230
1
0
CIRCLE
5
179
100
AcDbEntity
8
0
100
AcDbCircle
10
46.061519110200038
20
-30.508825213970027
30
0
40
0.49999999999999822
210
-3.6863375221055713e-66
220
-0
230
1
0
CIRCLE
5
180
100
AcDbEntity
8
0
100
AcDbCircle
10
44.172719110200049
20
-36.787425213970025
30
0
40
0.49999999999999822
210
-3.6863375221055713e-66
220
-0
230
1
0
CIRCLE
5
181
100
AcDbEntity
8
0
100
AcDbCircle
10
35.901519110200041
20
-33.048825213970019
30
-8.8817841970012523e-15
40
0.49999999999999822
210
0
220
0
230
1
0
CIRCLE
5
182
100
AcDbEntity
8
0
100
AcDbCircle
10
40.981519110200033
20
-30.508825213970027
30
0
40
0.49999999999999822
210
-3.6863375221055713e-66
220
-0
230
1
0
CIRCLE
5
183
100
AcDbEntity
8
0
100
AcDbCircle
10
46.712719110200034
20
-36.787425213970025
30
0
40
0.49999999999999822
210
-3.6863375221055713e-66
220
-0
230
1
0
CIRCLE
5
184
100
AcDbEntity
8
0
100
AcDbCircle
10
48.601519110200037
20
-30.508825213970027
30
0
40
0.49999999999999822
210
-3.6863375221055713e-66
220
-0
230
1
0
CIRCLE
5
185
100
AcDbEntity
8
0
100
AcDbCircle
10
51.141519110200036
20
-33.048825213970019
30
0
40
0.49999999999999822
210
-3.6863375221055713e-66
220
-0
230
1
0
CIRCLE
5
186
100
AcDbEntity
8
0
100
AcDbCircle
10
53.367719110200042
20
-46.377425213970021
30
0
40
0.49999999999999822
210
-3.6863375221055713e-66
220
-0
230
1
0
CIRCLE
5
187
100
AcDbEntity
8
0
100
AcDbCircle
10
46.061519110200038
20
-33.048825213970019
30
0
40
0.49999999999999822
210
-3.6863375221055713e-66
220
-0
230
1
0
CIRCLE
5
188
100
AcDbEntity
8
0
100
AcDbCircle
10
48.601519110200037
20
-33.048825213970019
30
0
40
0.49999999999999822
210
-3.6863375221055713e-66
220
-0
230
1
0
CIRCLE
5
189
100
AcDbEntity
8
0
100
AcDbCircle
10
5.5677191102000663
20
-23.487425213970063
30
0
40
1.6500000000000004
210
0
220
-0
230
1
0
CIRCLE
5
190
100
AcDbEntity
8
0
100
AcDbCircle
10
61.167719110200061
20
-23.487425213970063
30
0
40
1.6500000000000004
210
0
220
-0
230
1
0
CIRCLE
5
191
100
AcDbEntity
8
0
100
AcDbCircle
10
15.867719110199982
20
-95.28742521397001
30
0
40
1.4999999999999991
210
7.851342509042339e-50
220
2.434564646842758e-82
230
1
0
CIRCLE
5
192
100
AcDbEntity
8
0
100
AcDbCircle
10
50.867719110200056
20
-95.28742521397001
30
0
40
1.5000000000000036
210
7.85134250904234e-50
220
-3.0814879110195774e-33
230
1
0
ENDSEC
0
SECTION
2
OBJECTS
0
DICTIONARY
5
C
100
AcDbDictionary
3
ACAD_GROUP
350
D
3
ACAD_MLINESTYLE
350
17
0
DICTIONARY
5
D
100
AcDbDictionary
0
DICTIONARY
5
1A
330
C
100
AcDbDictionary
0
DICTIONARY
5
17
100
AcDbDictionary
0
ENDSEC
0
EOF
